<?xml version="1.0" encoding="UTF-8" standalone="no"?>
<svg
   width="40.640099mm"
   height="40.640099mm"
   viewBox="0 0 800 800"
   version="1.1"
   id="svg1"
   sodipodi:docname="supla_logo_whte.svg"
   inkscape:export-filename="supla_logo_green.svg"
   inkscape:export-xdpi="13.6973"
   inkscape:export-ydpi="13.6973"
   xmlns:inkscape="http://www.inkscape.org/namespaces/inkscape"
   xmlns:sodipodi="http://sodipodi.sourceforge.net/DTD/sodipodi-0.dtd"
   xmlns="http://www.w3.org/2000/svg"
   xmlns:svg="http://www.w3.org/2000/svg">
  <defs
     id="defs1" />
  <sodipodi:namedview
     id="namedview1"
     pagecolor="#ffffff"
     bordercolor="#666666"
     borderopacity="1.0"
     inkscape:showpageshadow="2"
     inkscape:pageopacity="0.0"
     inkscape:pagecheckerboard="0"
     inkscape:deskcolor="#d1d1d1"
     inkscape:document-units="mm" />
  <path
     id="Zaznaczenie"
     fill="none"
     stroke="#000000"
     stroke-width="1"
     d="m 227,57.22 c 0,0 5,0 5,0 0,0 12,0.82 12,0.82 0,0 10,0 10,0 23.5,2.37 46.44,8.62 67,20.39 32.79,18.77 59.95,55.47 67.79,92.57 3.23,15.27 3.78,31.55 1.93,47 0,0 -3.35,18 -3.35,18 -0.6,2.36 -2.16,6.73 -1.59,8.98 1.08,4.22 11.39,9.84 15.22,12.21 0,0 44,27.86 44,27.86 0,0 70,44.29 70,44.29 0,0 23,14.85 23,14.85 2.2,1.37 7.8,5.15 10,5.59 4.28,0.85 14.63,-8.08 19,-10.47 10.46,-5.71 24.08,-9.29 36,-9.31 14.45,-0.02 20.92,-0.14 35,4.86 32.67,11.61 53.02,40.94 54.79,75.14 0.33,6.38 -2.13,19.76 -4.13,26 -11.57,36.08 -42.06,55.16 -78.66,57.49 -10.11,0.64 -22.53,-2.07 -32,-5.54 -3.44,-1.26 -11.85,-5.81 -15,-4.72 -2.39,0.83 -6.13,4.9 -8,6.77 0,0 -18,19 -18,19 0,0 -25.09,27 -25.09,27 0,0 -42.87,45 -42.87,45 0,0 -21.32,23 -21.32,23 -1.76,1.99 -6.83,6.77 -7.38,9 -0.76,3.03 2.61,5.9 4.37,8 4.61,5.52 9.13,12.31 11.84,19 10.34,25.58 4.91,57.27 -14.56,76.99 -29.76,30.15 -82.55,31.97 -111.82,0 C 319.87,705.73 311.18,687.46 311,672 c 0,0 0,-9 0,-9 0.18,-15.28 6.87,-30.31 16.46,-42 9.26,-11.29 17.05,-12.49 17.44,-19 0.18,-3 -4.36,-15.37 -5.57,-19 0,0 -13.33,-40 -13.33,-40 0,0 -49,-143 -49,-143 0,0 -13.33,-39 -13.33,-39 -1.33,-3.99 -3.55,-12.91 -6.89,-15.22 -2.62,-1.81 -11.17,-0.74 -14.78,-0.78 0,0 -10,-0.91 -10,-0.91 -15.17,-1.06 -29.71,-3.73 -44,-9.15 C 137.27,315.7 99.96,270.4 94.93,216 c 0,0 -0.93,-10 -0.93,-10 -0.25,-21.55 2.47,-42.28 11.78,-62 7.52,-15.93 17.77,-31.47 30.26,-43.96 C 162.72,73.36 190.79,63.35 227,57.22 Z m 9,47.06 c -13.39,1.93 -18.73,1.8 -32,7.17 -22.44,9.09 -42.63,28.59 -52.69,50.55 -24.75,54 6.11,116.11 62.69,132.14 7.51,2.13 16.18,3.76 24,3.86 20.18,0.23 37.04,-2.45 55,-12.31 11.05,-6.07 21.23,-14.79 28.99,-24.69 17.18,-21.93 25.8,-54.6 19.11,-82 -1.88,-7.71 -5.28,-14.96 -8.86,-22 -6.11,-12.03 -14.63,-23.06 -25.24,-31.49 -12.59,-10 -26.33,-15.63 -42,-18.71 -7.84,-1.53 -21.19,-3.24 -29,-2.52 z m 135.09,174.78 c -4.84,1.05 -7.36,6.21 -10.3,9.94 -5.08,6.44 -11.63,13.31 -17.79,18.71 -8.88,7.79 -18.61,14.4 -29,19.98 -3.23,1.74 -11.13,4.29 -12.36,7.52 -0.95,2.47 1.34,10.87 2.01,13.79 0,0 7.98,33 7.98,33 0,0 29.74,125 29.74,125 0,0 15.42,65 15.42,65 0,0 4.08,17 4.08,17 0.5,1.98 1.19,5.74 2.85,7.1 1.86,1.31 5.18,0.48 7.28,0 0,0 15,-1.59 15,-1.59 6.3,-0.4 18.01,1.75 24,3.93 3.71,1.34 10.22,5.07 13.91,3.78 3.24,-1.13 7.86,-7.46 10.09,-10.22 0,0 18.2,-22 18.2,-22 0,0 64,-78 64,-78 0,0 16.19,-20 16.19,-20 1.9,-2.34 6.09,-7.1 6.5,-10 0.46,-3.27 -5.86,-13.41 -7.64,-17 -4.6,-9.26 -7.99,-20.6 -8.24,-31 -0.24,-10.35 2.04,-21.45 6,-31 1.45,-3.5 6.24,-11.41 4.78,-14.82 -1.34,-3.12 -7.8,-5.87 -10.79,-7.49 0,0 -28,-15.27 -28,-15.27 0,0 -80,-43.28 -80,-43.28 0,0 -29,-15.92 -29,-15.92 -4.85,-2.58 -9.5,-5.95 -14.91,-7.16 z M 606,362.32 c 0,0 -10,1.14 -10,1.14 -10.2,1.86 -21.03,8.56 -27.53,16.54 -26.42,32.41 -3.64,78.36 37.53,79.96 36.4,1.42 62.96,-35.33 47.69,-68.96 -2.63,-5.79 -5.14,-9.49 -9.7,-13.96 -4.88,-4.78 -9.66,-8.03 -15.99,-10.59 -6.37,-2.57 -15.14,-4.28 -22,-4.13 z M 378,618.29 c -24.56,4.08 -43.92,24.11 -43.92,49.71 0,25.87 21.02,46.23 45.92,49.05 3.27,0.37 5.66,0.98 9,0.65 8.02,-0.79 17.08,-2.97 24,-7.16 29.58,-17.92 32.66,-59.22 6,-81.21 -11.46,-9.46 -26.55,-12.41 -41,-11.04 z"
     style="fill:#10d748;fill-opacity:1;fill-rule:nonzero;stroke-width:0;stroke-dasharray:none" />
  <path
     style="opacity:0;fill:#00ff00;stroke:#ffffff;stroke-width:2.64907;stroke-linecap:round"
     d="m 227.45407,296.52146 c -35.31846,-5.50793 -64.09116,-27.89938 -77.18197,-60.06447 -4.9142,-12.07457 -6.69983,-21.4525 -6.69725,-35.17329 0.002,-11.31735 0.65201,-16.16478 3.48824,-26.01861 8.99244,-31.24215 35.30551,-57.46858 66.863,-66.64281 5.89301,-1.71319 20.97463,-3.87277 27.04022,-3.87198 2.60332,3.4e-4 7.85269,0.35808 11.66527,0.79494 40.57794,4.64973 66.27955,22.92941 82.40082,58.6057 3.28669,7.27343 4.66351,11.24755 5.97269,17.23983 4.00511,18.33187 0.83843,41.47362 -8.34136,60.95781 -9.42183,19.99791 -24.3621,35.15267 -44.34537,44.98201 -10.74125,5.28338 -20.87315,8.13017 -33.5589,9.42915 -7.15373,0.73251 -21.90583,0.60378 -27.30539,-0.23828 z"
     id="path1" />
  <path
     style="opacity:0;fill:#00ff00;stroke:#ffffff;stroke-width:2.64907;stroke-linecap:round"
     d="m 227.45407,296.52146 c -35.31846,-5.50793 -64.09116,-27.89938 -77.18197,-60.06447 -4.9142,-12.07457 -6.69983,-21.4525 -6.69725,-35.17329 0.002,-11.31735 0.65201,-16.16478 3.48824,-26.01861 8.99244,-31.24215 35.30551,-57.46858 66.863,-66.64281 5.89301,-1.71319 20.97463,-3.87277 27.04022,-3.87198 2.60332,3.4e-4 7.85269,0.35808 11.66527,0.79494 40.57794,4.64973 66.27955,22.92941 82.40082,58.6057 3.28669,7.27343 4.66351,11.24755 5.97269,17.23983 4.00511,18.33187 0.83843,41.47362 -8.34136,60.95781 -9.42183,19.99791 -24.3621,35.15267 -44.34537,44.98201 -10.74125,5.28338 -20.87315,8.13017 -33.5589,9.42915 -7.15373,0.73251 -21.90583,0.60378 -27.30539,-0.23828 z"
     id="path2" />
</svg>
